# xmcd CD database file
#
# Track frame offsets:
#	150
#	31425
#	74003
#	111238
#	155251
#	194536
#	232477
#	263879
#
# Disc length: 3919 seconds
#
# Revision: 3
# Processed by: cddbd v1.5.2PL0 Copyright (c) Steve Scherf et al.
# Submitted via: CDex 1.81
#
DISCID=790f4d08
DTITLE=Manhattan Jazz Orchestra - David Matthews Presents Super Collection[Disc 1]
DYEAR=2012
DGENRE=Jazz
TTITLE0=It Don't Mean A Thing If It Ain't Got That Swing
TTITLE1=Les Liaisons Dangereuses (No Problem)
TTITLE2=Get It On
TTITLE3=A Night In Tunisia
TTITLE4=Sir Duke
TTITLE5=Comin' Home Baby
TTITLE6=Take The A Train
TTITLE7=Moonlight Serenade
EXTD=YEAR: 2012
EXTT0=
EXTT1=
EXTT2=
EXTT3=
EXTT4=
EXTT5=
EXTT6=
EXTT7=
PLAYORDER=
